<?xml version="1.0" standalone="no"?>
<!DOCTYPE svg PUBLIC "-//W3C//DTD SVG 20010904//EN"
 "http://www.w3.org/TR/2001/REC-SVG-20010904/DTD/svg10.dtd">
<svg version="1.0" xmlns="http://www.w3.org/2000/svg"
 width="512.000000pt" height="512.000000pt" viewBox="0 0 512.000000 512.000000"
 preserveAspectRatio="xMidYMid meet">
<metadata>
Created by potrace 1.16, written by Peter Selinger 2001-2019
</metadata>
<g transform="translate(0.000000,512.000000) scale(0.100000,-0.100000)"
fill="#000000" stroke="none">
<path d="M2349 4726 c-2 -2 -22 -7 -44 -10 -94 -14 -113 -18 -165 -32 -155
-44 -296 -109 -435 -199 -108 -71 -126 -86 -230 -190 -123 -123 -231 -271
-280 -382 -10 -24 -22 -43 -27 -43 -4 0 -8 -8 -8 -18 0 -10 -7 -28 -16 -40 -8
-12 -13 -22 -9 -22 3 0 -1 -12 -9 -27 -14 -28 -50 -154 -61 -209 -2 -16 -7
-40 -10 -54 -16 -70 -19 -118 -20 -255 0 -173 4 -208 39 -360 18 -77 86 -254
123 -320 12 -22 32 -57 43 -78 30 -55 84 -130 162 -224 59 -71 92 -103 181
-173 11 -8 27 -22 36 -31 47 -45 310 -196 354 -203 7 -1 17 -4 22 -7 12 -7
102 -37 131 -44 10 -2 46 -11 79 -19 33 -8 82 -17 109 -20 26 -2 50 -6 51 -8
2 -2 7 -71 10 -154 7 -147 7 -152 -13 -163 -15 -8 -326 -11 -1104 -11 l-1083
0 0 -32 0 -33 1110 0 c611 0 1119 2 1130 5 40 10 44 31 47 206 3 151 5 169 21
172 16 3 17 -10 17 -166 0 -165 1 -169 24 -191 l24 -22 16 22 c13 19 16 53 16
191 0 168 0 168 23 168 l22 0 -3 -157 c-2 -87 -1 -167 2 -179 4 -14 21 -28 46
-38 36 -14 152 -16 1139 -16 l1098 0 12 27 c7 14 8 30 3 35 -4 4 -503 9 -1107
11 l-1099 2 -1 162 c0 102 4 163 10 164 95 8 243 43 347 83 158 59 355 175
439 257 16 16 32 29 34 29 11 0 133 133 188 203 67 88 150 222 169 273 7 19
16 34 20 34 4 0 8 6 8 14 0 8 9 36 21 63 12 26 30 82 41 123 10 41 21 84 24
95 33 128 38 435 9 575 -11 58 -14 66 -24 93 -6 16 -9 32 -6 37 3 5 1 11 -5
15 -5 3 -10 14 -10 23 0 10 -16 56 -36 102 -20 47 -38 94 -41 105 -4 11 -14
31 -25 44 -10 13 -18 30 -18 37 0 8 -4 14 -8 14 -5 0 -15 15 -24 33 -25 52
-130 186 -209 268 -134 137 -237 212 -407 297 -56 28 -105 51 -107 51 -3 0
-30 9 -60 20 -51 19 -169 51 -245 67 -36 7 -444 16 -451 10z m431 -202 c312
-54 620 -244 816 -503 79 -104 174 -293 209 -416 29 -100 55 -268 55 -360 0
-33 -5 -100 -11 -150 -52 -427 -301 -792 -684 -1000 -45 -25 -88 -45 -95 -45
-11 0 -12 47 -6 246 l6 245 32 27 c17 14 41 49 54 77 23 48 24 60 24 278 l0
227 40 0 c150 0 192 187 57 254 -122 59 -239 -95 -157 -206 l21 -28 -36 0 -36
0 2 62 c2 52 0 64 -17 75 -17 11 -24 10 -43 -3 -19 -14 -21 -22 -16 -55 12
-68 2 -79 -66 -79 l-59 0 0 -232 c0 -224 1 -235 24 -284 13 -28 40 -64 60 -80
l36 -29 0 -240 c0 -210 -2 -244 -17 -265 -25 -37 -42 -46 -103 -60 -30 -7 -60
-14 -66 -17 -7 -2 -14 13 -18 38 -4 22 -13 53 -21 68 -23 45 -92 100 -140 113
l-45 12 0 171 0 172 40 32 c76 61 80 78 80 350 l0 240 -57 3 -58 3 -3 73 c-3
80 -14 94 -58 74 -22 -11 -24 -17 -24 -77 l0 -65 -53 0 -54 0 -6 -242 c-7
-280 -2 -304 72 -355 l40 -28 1 -176 0 -177 -57 -28 c-70 -35 -113 -91 -120
-158 -6 -52 -8 -53 -94 -32 -128 31 -129 32 -129 335 l0 240 30 21 c16 12 42
42 57 68 l28 47 3 242 3 242 -63 3 -63 3 -1 56 c-1 64 -6 74 -34 82 -36 9 -49
-16 -43 -83 l6 -60 -47 0 c-45 0 -46 1 -30 17 62 62 48 170 -27 209 -60 31
-145 8 -175 -48 -21 -37 -17 -111 7 -142 29 -37 74 -58 117 -54 l37 3 5 -245
c6 -270 7 -279 73 -337 l34 -30 7 -252 7 -252 -38 16 c-124 52 -279 160 -392
274 -182 182 -302 408 -358 671 -25 118 -24 372 1 490 54 251 164 462 335 642
309 327 749 470 1201 392z m-641 -1601 c-1 -222 -7 -260 -41 -286 -39 -29 -79
-15 -94 33 -7 19 -15 122 -19 228 l-8 192 82 0 81 0 -1 -167z m491 -26 c0
-165 -2 -196 -17 -217 -38 -55 -82 -65 -127 -29 l-26 20 0 210 0 209 85 0 85
0 0 -193z m472 8 c-2 -99 -8 -197 -13 -217 -19 -72 -61 -87 -110 -39 l-29 29
0 207 0 206 78 -3 77 -3 -3 -180z"/>
<path d="M2477 4040 c-82 -72 -63 -192 36 -229 39 -15 63 -14 104 6 47 22 73
66 73 126 0 40 -5 53 -33 84 -29 31 -41 37 -89 41 -51 4 -58 2 -91 -28z"/>
<path d="M2947 3850 c-82 -72 -63 -192 36 -229 39 -15 63 -14 104 6 47 22 73
66 73 126 0 40 -5 53 -33 84 -29 31 -41 37 -89 41 -51 4 -58 2 -91 -28z"/>
<path d="M2043 3863 c-31 -6 -81 -55 -89 -87 -19 -77 41 -156 120 -156 49 0
87 24 111 70 19 37 19 64 -1 105 -24 52 -82 80 -141 68z m127 -123 l0 -40 -95
0 -95 0 0 40 0 40 95 0 95 0 0 -40z"/>
<path d="M2276 3652 c-3 -5 8 -16 23 -25 38 -22 48 -91 19 -123 -22 -25 -24
-72 -3 -80 8 -4 15 -17 15 -30 0 -32 29 -32 60 1 13 14 30 25 37 25 8 0 24
-11 37 -25 29 -31 42 -32 50 -2 12 46 11 47 -94 47 -93 0 -100 1 -100 20 0 30
31 40 129 40 l91 0 0 65 c0 36 -1 65 -2 65 -2 1 -43 3 -93 6 -49 3 -103 9
-119 15 -36 11 -43 11 -50 1z"/>
<path d="M2600 3520 l0 -120 100 0 100 0 0 120 0 120 -100 0 -100 0 0 -120z"/>
<path d="M280 1193 c-41 -20 -54 -34 -76 -79 -22 -45 -26 -63 -20 -101 10 -79
42 -122 118 -162 62 -33 108 -75 95 -87 -3 -3 -30 -8 -60 -11 -46 -5 -62 -2
-93 16 -43 26 -58 18 -75 -39 -14 -47 6 -91 53 -115 45 -23 206 -30 252 -11
76 32 119 107 119 208 0 42 -35 104 -63 113 -11 4 -20 11 -20 16 0 5 -5 9 -11
9 -20 0 -119 64 -119 77 0 7 -6 13 -12 13 -7 0 2 10 19 21 30 19 37 20 83 8
59 -15 66 -11 91 57 22 56 15 67 -55 82 -85 18 -171 12 -226 -15z"/>
<path d="M2689 1213 c-22 -5 -29 -104 -29 -390 l0 -223 80 0 80 0 0 98 c1 90
2 96 16 77 9 -11 25 -40 36 -65 11 -25 31 -60 45 -77 24 -32 25 -33 104 -33
43 0 79 4 79 9 0 5 -4 11 -8 13 -5 2 -34 48 -64 103 -38 68 -55 109 -53 128 2
15 24 59 50 98 26 39 45 72 43 74 -2 2 -32 4 -67 6 l-64 4 -33 -55 c-18 -30
-38 -60 -43 -67 -6 -7 -11 -17 -11 -23 0 -13 -17 -13 -25 0 -4 6 -6 71 -6 146
0 172 -3 181 -66 181 -26 1 -55 -1 -64 -4z"/>
<path d="M690 905 l0 -306 68 3 67 3 3 142 c2 137 3 142 27 157 29 19 53 12
66 -21 5 -13 9 -83 9 -154 l0 -129 64 0 63 0 7 99 c9 115 0 233 -21 277 -21
46 -54 59 -142 57 l-76 -1 3 89 3 89 -70 0 -71 0 0 -305z"/>
<path d="M2410 1155 l0 -55 75 0 75 0 0 55 0 55 -75 0 -75 0 0 -55z"/>
<path d="M1288 1030 c-62 -18 -124 -86 -134 -147 -2 -15 -7 -40 -10 -55 -8
-42 22 -133 59 -174 40 -47 82 -64 152 -64 129 0 205 75 209 208 4 97 -27 168
-91 212 -37 25 -130 35 -185 20z m110 -140 c32 -30 31 -114 0 -141 -29 -23
-56 -24 -80 -2 -13 12 -18 31 -18 74 0 48 4 60 22 73 30 21 50 20 76 -4z"/>
<path d="M1651 1018 c-15 -15 -21 -33 -19 -53 4 -34 32 -80 45 -72 4 3 7 -62
5 -144 l-3 -149 75 0 76 0 0 133 c0 130 1 134 25 157 l25 24 22 -22 c20 -20
22 -30 19 -157 l-2 -135 74 0 75 0 -2 123 c-1 89 3 131 13 150 21 39 42 42 68
12 21 -24 23 -36 23 -156 l0 -129 65 0 65 0 0 168 c0 197 -13 242 -72 261 -36
11 -114 7 -166 -10 -26 -9 -40 -8 -66 5 -49 23 -114 20 -169 -8 -26 -13 -47
-20 -47 -17 0 12 -44 34 -76 38 -24 3 -37 -1 -53 -19z"/>
<path d="M3310 1037 c-3 -3 -26 -7 -50 -9 -35 -3 -47 -8 -56 -27 -7 -14 -9
-32 -4 -45 7 -19 14 -21 68 -18 71 4 103 -9 95 -38 -3 -11 -13 -21 -22 -21 -9
-1 -29 -2 -46 -3 -16 -1 -42 -3 -58 -4 -15 -1 -44 -17 -64 -36 -35 -31 -37
-38 -38 -92 0 -47 5 -66 24 -93 46 -64 150 -81 229 -36 23 13 42 20 42 15 0
-14 55 -40 84 -40 35 0 64 40 61 86 -3 39 -27 67 -51 57 -11 -4 -14 12 -15 88
-1 132 -4 149 -37 182 -25 24 -40 30 -93 34 -35 3 -66 3 -69 0z"/>
<path d="M3656 1016 c-40 -39 -35 -109 8 -117 17 -4 18 -15 17 -151 l-2 -146
73 -4 c40 -2 77 0 83 5 5 4 10 67 11 143 1 74 4 138 8 141 3 4 25 9 48 12 26
4 42 12 44 21 14 91 14 98 0 109 -9 8 -30 11 -53 7 -21 -3 -40 -5 -41 -6 -2 0
-17 -14 -33 -31 l-28 -30 -30 30 c-43 44 -74 49 -105 17z"/>
<path d="M4142 1026 c-54 -18 -105 -76 -120 -136 -11 -49 -3 -149 17 -186 46
-86 90 -114 182 -114 80 0 140 27 169 77 24 42 52 140 45 163 -2 8 -6 27 -9
43 -8 49 -49 117 -83 138 -42 26 -143 34 -201 15z m123 -136 c10 -11 20 -40
22 -64 4 -35 0 -49 -18 -70 -28 -32 -48 -33 -84 -4 -25 19 -27 26 -22 71 7 77
61 112 102 67z"/>
<path d="M4523 1028 c-32 -41 -34 -58 -12 -98 13 -22 26 -40 31 -40 4 0 8 -48
8 -107 0 -137 11 -179 48 -186 15 -3 43 -2 62 2 l35 7 3 139 c2 117 5 142 19
153 24 17 40 15 63 -8 18 -18 20 -33 20 -155 l0 -136 68 3 67 3 0 185 0 186
-27 27 c-35 35 -82 40 -186 21 -76 -14 -86 -14 -107 0 -29 19 -79 21 -92 4z"/>
<path d="M2410 810 l0 -210 75 0 75 0 0 210 0 210 -75 0 -75 0 0 -210z"/>
</g>
</svg>
