<?xml version="1.0" standalone="no"?>
<!DOCTYPE svg PUBLIC "-//W3C//DTD SVG 20010904//EN"
 "http://www.w3.org/TR/2001/REC-SVG-20010904/DTD/svg10.dtd">
<svg version="1.0" xmlns="http://www.w3.org/2000/svg"
 width="1329.000000pt" height="300.000000pt" viewBox="0 0 1329.000000 300.000000"
 preserveAspectRatio="xMidYMid meet">
<metadata>
Created by potrace 1.16, written by Peter Selinger 2001-2019
</metadata>
<g transform="translate(0.000000,300.000000) scale(0.100000,-0.100000)"
fill="#000000" stroke="none">
<path d="M1520 2844 c-101 -30 -213 -82 -295 -137 -80 -54 -199 -175 -260
-267 -27 -41 -53 -76 -57 -78 -5 -2 -8 -12 -8 -22 0 -10 -6 -25 -13 -32 -36
-38 -91 -234 -102 -368 -8 -87 14 -281 36 -322 5 -9 9 -25 9 -35 0 -29 102
-222 157 -298 50 -69 130 -150 208 -212 94 -75 300 -163 417 -179 25 -4 51 -9
57 -13 6 -4 12 -48 13 -106 l3 -100 -738 -3 -738 -2 3 -23 3 -22 751 -2 c605
-2 754 0 763 10 5 7 12 64 13 127 2 80 7 115 16 118 9 3 12 -24 12 -111 0 -90
3 -117 15 -127 12 -10 18 -10 30 0 12 10 15 37 15 126 0 69 4 114 10 114 6 0
10 -44 10 -113 0 -98 3 -116 18 -130 17 -16 84 -17 764 -17 641 0 747 2 758
15 6 8 9 19 5 25 -4 7 -242 10 -744 10 l-738 0 4 98 c3 53 6 102 8 108 2 6 26
14 54 18 276 37 576 255 708 516 15 30 31 57 36 58 4 2 7 11 7 21 0 9 4 21 9
27 6 5 15 29 21 54 6 25 13 54 16 65 52 183 40 422 -30 590 -7 17 -19 46 -26
65 -7 19 -18 42 -25 50 -6 8 -29 44 -50 80 -46 76 -63 98 -132 166 -133 132
-298 224 -483 270 -36 9 -118 13 -240 13 -168 0 -193 -2 -270 -25z m426 -105
c291 -51 530 -235 653 -501 52 -112 71 -192 78 -323 9 -188 -44 -369 -155
-531 -55 -81 -172 -191 -262 -246 -124 -76 -116 -84 -112 104 l3 162 29 33
c41 46 50 90 50 246 l0 137 33 0 c45 0 81 38 81 86 0 79 -100 119 -150 60 -28
-32 -31 -81 -8 -114 14 -21 14 -22 -10 -22 -24 0 -26 3 -26 44 0 25 -5 48 -10
51 -20 12 -40 -17 -40 -56 0 -39 0 -39 -40 -39 l-40 0 0 -156 c0 -169 9 -206
56 -243 23 -18 24 -22 24 -179 0 -153 -1 -162 -22 -185 -26 -29 -107 -52 -113
-34 -2 7 -6 24 -9 39 -8 35 -60 86 -99 96 l-32 8 -3 114 -3 114 32 25 c51 40
59 73 59 241 l0 150 -40 0 -40 0 0 43 c0 55 -13 76 -37 61 -12 -7 -19 -26 -21
-53 -3 -40 -4 -41 -38 -41 l-34 0 -2 -72 c0 -40 -1 -119 -2 -176 l-1 -104 38
-34 37 -34 0 -120 c0 -100 -3 -120 -15 -120 -8 0 -33 -16 -55 -36 -29 -27 -42
-47 -46 -75 -7 -43 -7 -43 -70 -28 -78 20 -84 37 -84 219 0 156 0 157 26 181
49 46 54 66 54 239 l0 160 -40 0 -40 0 0 44 c0 31 -5 46 -16 50 -26 10 -34 -2
-34 -50 0 -43 -1 -44 -31 -44 l-30 0 20 26 c28 36 26 66 -5 103 -37 44 -91 44
-129 -1 -21 -25 -25 -38 -21 -62 8 -39 49 -76 86 -76 l28 0 4 -157 c4 -165 13
-204 56 -235 17 -12 20 -32 24 -180 4 -112 2 -168 -5 -168 -22 0 -145 74 -209
126 -319 257 -413 697 -227 1065 118 236 342 406 609 463 79 17 244 20 326 5z
m-418 -1101 c2 -127 1 -139 -18 -158 -25 -25 -35 -25 -60 0 -15 15 -20 33 -20
78 0 31 -3 87 -6 124 -9 92 -5 100 53 96 l48 -3 3 -137z m330 8 c2 -121 1
-130 -19 -153 -26 -27 -55 -30 -81 -6 -16 14 -18 33 -18 148 0 72 3 135 7 139
4 4 30 6 58 4 l50 -3 3 -129z m314 -6 c-3 -150 -15 -186 -55 -174 -42 12 -47
31 -47 169 0 73 3 135 7 139 4 4 28 6 53 4 l45 -3 -3 -135z"/>
<path d="M1750 2410 c-46 -46 -32 -122 27 -146 88 -37 166 74 98 141 -31 32
-96 34 -125 5z"/>
<path d="M2071 2283 c-63 -59 -29 -153 54 -153 83 0 117 94 54 153 -16 15 -40
27 -54 27 -14 0 -38 -12 -54 -27z"/>
<path d="M1450 2287 c-54 -28 -61 -99 -13 -137 36 -28 70 -25 104 9 35 35 37
71 7 105 -28 31 -65 40 -98 23z"/>
<path d="M1620 2154 c0 -5 9 -15 20 -22 24 -15 26 -53 5 -86 -14 -21 -14 -25
0 -39 8 -9 15 -23 15 -31 0 -21 9 -20 35 4 21 20 55 19 55 -1 0 -18 28 -8 33
11 5 19 0 20 -65 20 -61 0 -69 2 -66 18 3 14 16 18 76 20 l72 3 0 44 0 43 -67
5 c-38 2 -78 7 -90 12 -13 4 -23 3 -23 -1z"/>
<path d="M1840 2065 l0 -85 65 0 65 0 0 85 0 85 -65 0 -65 0 0 -85z"/>
</g>
</svg>
